<?xml version="1.0" encoding="utf-8"?>
<!-- Generator: Adobe Illustrator 16.0.0, SVG Export Plug-In . SVG Version: 6.00 Build 0)  -->
<!DOCTYPE svg PUBLIC "-//W3C//DTD SVG 1.1//EN" "http://www.w3.org/Graphics/SVG/1.1/DTD/svg11.dtd">
<svg version="1.1" id="Layer_1" xmlns="http://www.w3.org/2000/svg" xmlns:xlink="http://www.w3.org/1999/xlink" x="0px" y="0px"
	 width="352px" height="120px" viewBox="0 0 352 120" enable-background="new 0 0 352 120" xml:space="preserve">
<g>
	<g>
		<path d="M148.144,66.268c-1.242,1.488-2.367,2.725-3.375,3.709s-1.922,1.77-2.742,2.355s-1.582,1.078-2.285,1.477
			c0.609-3.984,1.207-7.711,1.793-11.18c0.234-1.477,0.48-2.959,0.738-4.447s0.51-2.9,0.756-4.236s0.475-2.531,0.686-3.586
			s0.387-1.887,0.527-2.496c0.07-0.281,0.105-0.527,0.105-0.738c0-0.68-0.246-1.178-0.738-1.494s-1.102-0.475-1.828-0.475
			c-0.609,0-1.254,0.105-1.934,0.316s-1.33,0.527-1.951,0.949s-1.172,0.943-1.652,1.564s-0.814,1.33-1.002,2.127l-2.461,10.336
			c-0.094,0.75-0.299,1.688-0.615,2.812s-0.732,2.215-1.248,3.27s-1.125,1.957-1.828,2.707s-1.488,1.125-2.355,1.125
			c-0.539,0-0.984-0.135-1.336-0.404s-0.633-0.621-0.844-1.055s-0.357-0.926-0.439-1.477s-0.123-1.119-0.123-1.705
			c0-1.125,0.094-2.426,0.281-3.902s0.439-2.982,0.756-4.518s0.68-3.035,1.09-4.5s0.826-2.736,1.248-3.814
			c0.141-0.352,0.24-0.68,0.299-0.984s0.088-0.586,0.088-0.844c0-0.867-0.293-1.506-0.879-1.916s-1.289-0.615-2.109-0.615
			c-0.961,0-1.945,0.275-2.953,0.826s-1.781,1.354-2.32,2.408c-0.727,1.477-1.371,2.936-1.934,4.377s-1.031,2.936-1.406,4.482
			s-0.662,3.176-0.861,4.887c-0.164,1.416-0.257,2.951-0.285,4.593c-0.119,0.113-0.225,0.235-0.348,0.347
			c-0.551,0.504-1.102,0.955-1.652,1.354s-1.096,0.721-1.635,0.967s-1.055,0.369-1.547,0.369c-0.656,0-1.084-0.311-1.283-0.932
			s-0.299-1.482-0.299-2.584c0-1.289,0.117-2.654,0.352-4.096s0.492-2.883,0.773-4.324s0.539-2.848,0.773-4.219
			s0.352-2.619,0.352-3.744c0-0.727-0.064-1.301-0.193-1.723s-0.311-0.75-0.545-0.984s-0.504-0.387-0.809-0.457
			s-0.633-0.105-0.984-0.105c-0.258,0-0.521,0.006-0.791,0.018s-0.533,0.018-0.791,0.018c-0.305,0-0.604-0.018-0.896-0.053
			s-0.58-0.111-0.861-0.229s-0.516-0.305-0.703-0.562s-0.381-0.521-0.58-0.791s-0.451-0.51-0.756-0.721s-0.727-0.316-1.266-0.316
			c-1.617,0-3.205,0.346-4.764,1.037s-3.041,1.623-4.447,2.795s-2.701,2.543-3.885,4.113s-2.209,3.24-3.076,5.01
			s-1.547,3.58-2.039,5.432c-0.275,1.04-0.467,2.064-0.588,3.074c-0.045,0.021-0.087,0.053-0.133,0.072
			c-0.715,0.316-1.412,0.475-2.092,0.475s-1.318-0.094-1.916-0.281s-1.113-0.492-1.547-0.914s-0.779-0.955-1.037-1.6
			s-0.387-1.424-0.387-2.338c0-0.375,0.146-1.254,0.439-2.637s0.656-3.082,1.09-5.098s0.902-4.277,1.406-6.785
			s0.973-5.085,1.406-7.734c0.434-2.648,0.797-5.291,1.09-7.928s0.439-5.092,0.439-7.365c0-0.82-0.094-1.494-0.281-2.021
			s-0.457-0.949-0.809-1.266s-0.768-0.539-1.248-0.668c-0.48-0.128-1.014-0.193-1.6-0.193c-0.75,0-1.482,0.065-2.197,0.193
			c-0.715,0.129-1.354,0.393-1.916,0.791c-0.562,0.399-1.025,0.961-1.389,1.688c-0.363,0.727-0.58,1.688-0.65,2.883
			c-0.07,1.148-0.193,2.737-0.369,4.764c-0.176,2.027-0.416,4.312-0.721,6.855c-0.305,2.543-0.686,5.244-1.143,8.104
			s-0.996,5.695-1.617,8.508s-1.336,5.508-2.145,8.086s-1.723,4.846-2.742,6.803s-2.145,3.521-3.375,4.693s-2.596,1.758-4.096,1.758
			c-0.867,0-1.594-0.316-2.18-0.949s-1.061-1.547-1.424-2.742s-0.621-2.643-0.773-4.342s-0.229-3.604-0.229-5.713
			c0-2.062,0.094-4.324,0.281-6.785s0.428-4.951,0.721-7.471s0.609-4.975,0.949-7.365s0.656-4.529,0.949-6.416
			c0.293-1.886,0.533-3.433,0.721-4.641c0.188-1.207,0.281-1.893,0.281-2.057c0-0.492-0.07-0.937-0.211-1.336
			c-0.141-0.398-0.381-0.738-0.721-1.02s-0.797-0.504-1.371-0.668c-0.574-0.164-1.307-0.246-2.197-0.246
			c-0.938,0-1.764,0.105-2.479,0.316s-1.342,0.575-1.881,1.09c-0.539,0.516-1.002,1.208-1.389,2.074
			c-0.387,0.867-0.721,1.946-1.002,3.234c-1.523,7.993-3.27,15.129-5.238,21.41c-0.562,1.781-1.16,3.545-1.793,5.291
			s-1.307,3.41-2.021,4.992s-1.459,3.053-2.232,4.412s-1.582,2.531-2.426,3.516s-1.717,1.758-2.619,2.32s-1.834,0.844-2.795,0.844
			s-1.793-0.305-2.496-0.914s-1.289-1.447-1.758-2.514s-0.814-2.32-1.037-3.762s-0.334-2.994-0.334-4.658
			c0-2.039,0.193-4.248,0.58-6.627s0.873-4.799,1.459-7.26s1.219-4.887,1.898-7.277s1.312-4.605,1.898-6.645
			s1.072-3.837,1.459-5.396c0.387-1.559,0.58-2.736,0.58-3.533c0-0.703-0.076-1.26-0.229-1.67c-0.152-0.41-0.375-0.726-0.668-0.949
			c-0.293-0.223-0.65-0.369-1.072-0.439s-0.891-0.105-1.406-0.105c-0.633,0-1.26,0.035-1.881,0.105s-1.236,0.287-1.846,0.65
			c-0.609,0.364-1.207,0.926-1.793,1.688c-0.586,0.762-1.172,1.823-1.758,3.182c-0.984,2.438-1.863,4.945-2.636,7.523
			c-0.773,2.579-1.424,5.18-1.951,7.805c-0.527,2.625-0.932,5.244-1.213,7.857s-0.422,5.162-0.422,7.646
			c0,4.055,0.322,7.6,0.967,10.635c0.645,3.035,1.5,5.561,2.566,7.576c1.066,2.016,2.303,3.533,3.708,4.553
			c1.406,1.02,2.883,1.529,4.43,1.529c2.695,0,5.15-0.463,7.365-1.389s4.184-2.479,5.906-4.658s3.223-5.068,4.5-8.666
			s2.338-8.068,3.182-13.412c-0.07,0.773-0.164,1.652-0.281,2.637s-0.176,2.039-0.176,3.164c0,3.07,0.223,5.965,0.668,8.684
			s1.154,5.086,2.127,7.102s2.238,3.609,3.797,4.781s3.451,1.758,5.678,1.758c1.758,0,3.463-0.334,5.115-1.002
			s3.234-1.617,4.746-2.848s2.941-2.719,4.289-4.465s2.607-3.709,3.779-5.889c0.141,1.125,0.387,2.098,0.738,2.918
			s0.791,1.488,1.318,2.004s1.131,0.896,1.811,1.143s1.406,0.369,2.18,0.369c1.617,0,3.346-0.574,5.186-1.723
			c0.025-0.016,0.05-0.035,0.074-0.051c0.053,0.151,0.096,0.309,0.154,0.455c0.492,1.23,1.148,2.273,1.969,3.129
			s1.764,1.512,2.83,1.969s2.162,0.686,3.287,0.686c1.055,0,2.109-0.176,3.164-0.527s2.068-0.803,3.041-1.354
			s1.869-1.166,2.689-1.846s1.512-1.348,2.074-2.004c0.75,1.898,1.641,3.346,2.672,4.342s2.32,1.494,3.867,1.494
			c1.289,0,2.578-0.316,3.867-0.949s2.496-1.406,3.621-2.32c0.228-0.185,0.43-0.379,0.647-0.567c0.267,0.384,0.55,0.749,0.864,1.077
			c0.82,0.855,1.764,1.512,2.83,1.969s2.162,0.686,3.287,0.686c1.289,0,2.619-0.346,3.99-1.037s2.689-1.6,3.955-2.725l-0.949,3.27
			c-1.688,1.383-3.357,2.836-5.01,4.359s-3.234,3.07-4.746,4.641s-2.912,3.146-4.201,4.729s-2.402,3.105-3.34,4.57
			c-0.937,1.465-1.675,2.859-2.215,4.184c-0.539,1.324-0.809,2.514-0.809,3.568c0,1.523,0.259,2.742,0.773,3.656
			c0.516,0.914,1.166,1.617,1.951,2.109s1.641,0.82,2.566,0.984s1.787,0.246,2.584,0.246c2.016,0,3.855-0.346,5.52-1.037
			s3.17-1.658,4.518-2.9s2.555-2.73,3.621-4.465s2.016-3.639,2.848-5.713s1.553-4.301,2.162-6.68s1.137-4.822,1.582-7.33
			c2.297-1.406,4.441-2.859,6.434-4.359c0.844-0.633,1.705-1.307,2.584-2.021s1.723-1.453,2.531-2.215s1.547-1.523,2.215-2.285
			s1.213-1.506,1.635-2.232l-1.688-7.805C150.78,62.922,149.386,64.779,148.144,66.268z M100.155,60.449
			c-0.094,0.75-0.299,1.688-0.615,2.812s-0.732,2.215-1.248,3.27s-1.125,1.957-1.828,2.707s-1.488,1.125-2.355,1.125
			c-0.539,0-0.984-0.135-1.336-0.404s-0.633-0.621-0.844-1.055s-0.357-0.926-0.439-1.477s-0.123-1.119-0.123-1.705
			c0-1.031,0.135-2.133,0.404-3.305s0.65-2.338,1.143-3.498s1.078-2.268,1.758-3.322s1.424-1.992,2.232-2.812
			s1.67-1.471,2.584-1.951s1.852-0.721,2.812-0.721L100.155,60.449z M128.843,89.312c-0.328,1.195-0.727,2.42-1.195,3.674
			s-1.008,2.479-1.617,3.674s-1.283,2.262-2.021,3.199s-1.547,1.693-2.426,2.268s-1.811,0.861-2.795,0.861
			c-0.938,0-1.406-0.434-1.406-1.301c0-0.539,0.176-1.219,0.527-2.039s0.832-1.705,1.441-2.654s1.318-1.939,2.127-2.971
			s1.664-2.033,2.566-3.006s1.828-1.881,2.777-2.725s1.881-1.57,2.795-2.18C129.429,87.051,129.171,88.117,128.843,89.312z"/>
		<path d="M218.058,55.65c-1.781,0.551-3.832,0.826-6.152,0.826c-0.234,0-0.434-0.029-0.598-0.088s-0.322-0.123-0.475-0.193
			s-0.322-0.135-0.51-0.193s-0.434-0.088-0.738-0.088c-0.258,0-0.504,0.035-0.738,0.105s-0.586,0.223-1.055,0.457l0.07-0.562
			c1.453-1.852,2.877-3.838,4.271-5.959s2.725-4.277,3.99-6.469s2.432-4.389,3.498-6.592c1.066-2.203,1.992-4.324,2.777-6.363
			s1.395-3.955,1.828-5.748s0.65-3.38,0.65-4.764c0-1.523-0.24-2.807-0.721-3.85c-0.48-1.042-1.084-1.881-1.811-2.514
			s-1.529-1.09-2.408-1.371s-1.717-0.422-2.514-0.422c-2.016,0-3.867,0.61-5.555,1.828c-1.688,1.219-3.217,2.877-4.588,4.975
			c-1.371,2.098-2.607,4.547-3.709,7.348c-1.102,2.801-2.08,5.783-2.936,8.947s-1.594,6.416-2.215,9.756
			c-0.423,2.275-0.794,4.499-1.141,6.699c-0.079-0.082-0.151-0.167-0.23-0.248c-1.465-1.5-3.047-2.83-4.746-3.99
			s-3.521-2.086-5.467-2.777s-4.031-1.037-6.258-1.037c-2.602,0-4.945,0.475-7.031,1.424s-3.85,2.25-5.291,3.902
			s-2.549,3.598-3.322,5.836s-1.16,4.646-1.16,7.225c0,1.875,0.217,3.727,0.65,5.555s1.119,3.469,2.057,4.922
			s2.139,2.631,3.604,3.533s3.229,1.354,5.291,1.354c1.43,0,2.777-0.246,4.043-0.738s2.432-1.16,3.498-2.004s2.016-1.84,2.848-2.988
			s1.535-2.379,2.109-3.691s1.014-2.672,1.318-4.078s0.457-2.801,0.457-4.184s-0.17-2.83-0.51-4.342s-0.85-2.947-1.529-4.307
			l0.281-0.387c0.844,0.562,1.852,1.26,3.023,2.092s2.361,1.717,3.568,2.654c0.69,0.537,1.354,1.083,2.003,1.635
			c-0.313,2.344-0.577,4.594-0.79,6.75c-0.281,2.848-0.504,5.361-0.668,7.541s-0.275,3.926-0.334,5.238s-0.088,2.027-0.088,2.145
			c0,1.43,0.053,2.912,0.158,4.447s0.287,3.041,0.545,4.518s0.615,2.877,1.072,4.201s1.025,2.484,1.705,3.48s1.5,1.787,2.461,2.373
			s2.086,0.879,3.375,0.879s2.443-0.27,3.463-0.809s1.922-1.248,2.707-2.127s1.471-1.887,2.057-3.023s1.084-2.314,1.494-3.533
			s0.744-2.426,1.002-3.621s0.457-2.285,0.598-3.27s0.24-1.816,0.299-2.496s0.088-1.125,0.088-1.336c0-1.805-0.24-3.592-0.721-5.361
			s-1.014-3.369-1.6-4.799c-0.68-1.664-1.441-3.27-2.285-4.816c1.641-0.07,3.293-0.234,4.957-0.492
			c1.43-0.234,2.988-0.586,4.676-1.055s3.305-1.125,4.852-1.969l0.773-8.543c-1.055,1.031-2.297,1.934-3.727,2.707
			C221.339,54.484,219.839,55.1,218.058,55.65z M182.392,62.014c-0.34,1.488-0.791,2.848-1.354,4.078s-1.219,2.25-1.969,3.059
			s-1.523,1.213-2.32,1.213c-0.914,0-1.699-0.193-2.355-0.58s-1.184-0.902-1.582-1.547s-0.691-1.4-0.879-2.268
			s-0.281-1.793-0.281-2.777c0-1.43,0.188-2.918,0.562-4.465s0.891-2.959,1.547-4.236s1.418-2.326,2.285-3.146
			s1.781-1.23,2.742-1.23c0.727,0,1.348,0.199,1.863,0.598s0.938,0.938,1.266,1.617s0.574,1.482,0.738,2.408
			s0.246,1.928,0.246,3.006C182.901,59.102,182.731,60.525,182.392,62.014z M206.737,44.225c0.164-1.512,0.445-3.264,0.844-5.256
			c0.398-1.992,0.984-4.271,1.758-6.838s1.84-5.537,3.199-8.912c0.445-1.148,0.949-2.009,1.512-2.584
			c0.562-0.574,1.383-0.861,2.461-0.861c0.609,0,1.09,0.287,1.441,0.861c0.352,0.575,0.527,1.482,0.527,2.725
			c0,0.891-0.369,2.192-1.107,3.902c-0.738,1.711-1.693,3.686-2.865,5.924c-1.172,2.238-2.484,4.664-3.938,7.277
			s-2.895,5.268-4.324,7.963C206.409,47.137,206.573,45.736,206.737,44.225z M208.161,82.932c-0.082,1.324-0.246,2.543-0.492,3.656
			s-0.609,2.033-1.09,2.76s-1.119,1.09-1.916,1.09c-0.258,0-0.51-0.158-0.756-0.475s-0.469-1.002-0.668-2.057
			s-0.363-2.602-0.492-4.641s-0.193-4.781-0.193-8.227c0-0.492,0.023-1.166,0.07-2.021s0.105-1.781,0.176-2.777
			s0.152-2.01,0.246-3.041s0.193-1.963,0.299-2.795s0.217-1.512,0.334-2.039s0.223-0.791,0.316-0.791
			c0.281,0,0.586,0.316,0.914,0.949s0.65,1.459,0.967,2.479s0.621,2.174,0.914,3.463s0.551,2.584,0.773,3.885
			s0.398,2.549,0.527,3.744s0.193,2.203,0.193,3.023C208.284,80.336,208.243,81.607,208.161,82.932z"/>
	</g>
	<path d="M273.218,38.828c1.195,0,2.221-0.181,3.076-0.545c0.855-0.363,1.564-0.838,2.127-1.424c0.562-0.585,0.973-1.253,1.23-2.004
		c0.258-0.75,0.387-1.523,0.387-2.32c0-0.867-0.158-1.617-0.475-2.25s-0.744-1.143-1.283-1.529s-1.172-0.673-1.898-0.861
		c-0.727-0.188-1.5-0.281-2.32-0.281c-1.312,0-2.408,0.206-3.287,0.615c-0.879,0.41-1.582,0.914-2.109,1.512
		s-0.908,1.236-1.143,1.916c-0.234,0.68-0.352,1.289-0.352,1.828c0,1.617,0.492,2.913,1.477,3.885
		C269.632,38.342,271.155,38.828,273.218,38.828z"/>
	<path d="M342.22,51.75c-0.75,1.666-7.417,9.333-10.783,12.197c-1.255,1.068-2.707,1.916-4.184,2.76s-2.994,1.547-4.553,2.109
		s-3.041,0.844-4.447,0.844c-0.445,0-0.861-0.047-1.248-0.141s-0.756-0.258-1.107-0.492s-0.697-0.562-1.037-0.984
		s-0.686-0.949-1.037-1.582c2.039-0.562,3.932-1.348,5.678-2.355s3.252-2.156,4.518-3.445s2.256-2.66,2.971-4.113
		s1.072-2.906,1.072-4.359c0-1.336-0.234-2.543-0.703-3.621s-1.119-1.998-1.951-2.76s-1.811-1.354-2.936-1.775
		s-2.344-0.633-3.656-0.633c-1.617,0-3.088,0.287-4.412,0.861s-2.52,1.348-3.586,2.32s-1.998,2.098-2.795,3.375
		c-0.778,1.248-1.423,2.558-1.944,3.928c-1.192,0.648-2.637,1.238-4.349,1.768c-1.781,0.551-3.832,0.826-6.152,0.826
		c-0.234,0-0.434-0.029-0.598-0.088s-0.322-0.123-0.475-0.193s-0.322-0.135-0.51-0.193s-0.434-0.088-0.738-0.088
		c-0.258,0-0.504,0.035-0.738,0.105s-0.586,0.223-1.055,0.457l0.07-0.562c1.453-1.852,2.877-3.838,4.271-5.959
		s2.725-4.277,3.99-6.469s2.432-4.389,3.498-6.592c1.066-2.203,1.992-4.324,2.777-6.363s1.395-3.955,1.828-5.748
		s0.65-3.38,0.65-4.764c0-1.523-0.24-2.807-0.721-3.85c-0.48-1.042-1.084-1.881-1.811-2.514s-1.529-1.09-2.408-1.371
		s-1.717-0.422-2.514-0.422c-2.016,0-3.867,0.61-5.555,1.828c-1.688,1.219-3.217,2.877-4.588,4.975
		c-1.371,2.098-2.607,4.547-3.709,7.348c-1.102,2.801-2.08,5.783-2.936,8.947s-1.594,6.416-2.215,9.756s-1.16,6.598-1.617,9.773
		s-0.826,6.188-1.107,9.035c-0.072,0.73-0.141,1.438-0.205,2.123c-0.677,0.576-1.348,1.159-2.045,1.709
		c-1.055,0.832-2.098,1.541-3.129,2.127s-1.969,0.879-2.812,0.879c-0.727,0-1.207-0.311-1.441-0.932s-0.352-1.459-0.352-2.514
		c0-1.078,0.117-2.291,0.352-3.639s0.527-2.73,0.879-4.148s0.727-2.836,1.125-4.254s0.773-2.742,1.125-3.973
		s0.645-2.332,0.879-3.305s0.352-1.717,0.352-2.232c0-0.609-0.176-1.096-0.527-1.459s-1.02-0.545-2.004-0.545
		c-0.539,0-1.143,0.064-1.811,0.193s-1.312,0.328-1.934,0.598s-1.178,0.621-1.67,1.055s-0.82,0.955-0.984,1.564
		c-0.422,1.758-0.908,3.68-1.459,5.766c-0.263,0.994-0.225,1.129-0.474,2.125c-0.704,1.343-1.671,3.524-1.848,3.857
		c-0.131,0.245-0.649,1.153-1.177,2.071c-0.634,1.103-1.282,2.22-1.282,2.22c0.102-0.157,0.067-0.082-1.192,1.817
		c-0.385,0.579-0.701,1.109-1.16,1.708c-0.855,1.115-1.625,1.826-2.585,2.29c-1.109,0.536-1.4,0.603-2.759,0.833
		c-0.935,0.16-1.941-0.045-2.637-0.648c-0.622-0.54-1.274-1.27-2-2.5c-0.584-0.99-1.062-2.531-1.281-4.094
		c-0.199-1.426-0.413-2.827-0.344-4.469c0.089-2.097,0.282-4.172,0.625-6.562c0.338-2.355,0.721-4.76,1.25-7.438
		c0.484-2.45,1.204-4.64,1.875-7c0.672-2.36,1.422-4.862,2-6.875c0.577-2.012,5.072-12.838,5.088-14.422
		c0.004-0.364,0.081-0.76-0.468-1.108c-0.028-0.018-0.823-0.47-2.015-0.581c-0.654-0.061-0.761-0.087-1.543-0.124
		c-0.835-0.039-1.465,0.047-2.469,0.073c-0.339,0.009-1.317,0.57-1.763,1.446c-1.389,2.732-3.704,8.35-4.144,9.372
		c-0.967,2.393-1.762,4.182-2.9,7.673c-0.889,2.724-1.338,4.358-1.967,7.199c-0.57,2.581-1.05,4.835-1.328,7.415
		c-0.277,2.579-0.416,5.096-0.416,7.547c0,4.003,0.318,7.503,0.953,10.498c0.637,2.996,1.48,5.488,2.534,7.478
		c1.053,1.99,2.273,3.487,3.661,4.495c1.388,1.006,2.845,1.509,4.372,1.509c2.66,0,5.085-0.457,7.27-1.37
		c1.922-0.804,3.655-2.085,5.201-3.844c0.226,0.794,0.563,1.485,1.04,2.049c0.516,0.609,1.189,1.084,2.021,1.424
		s1.857,0.51,3.076,0.51c1.359,0,2.795-0.246,4.307-0.738s2.994-1.107,4.447-1.846c1.02-0.518,1.973-1.084,2.895-1.671
		c-0.095,1.362-0.164,2.519-0.205,3.446c-0.059,1.312-0.088,2.027-0.088,2.145c0,1.43,0.053,2.912,0.158,4.447
		s0.287,3.041,0.545,4.518s0.615,2.877,1.072,4.201s1.025,2.484,1.705,3.48s1.5,1.787,2.461,2.373s2.086,0.879,3.375,0.879
		s2.443-0.27,3.463-0.809s1.922-1.248,2.707-2.127s1.471-1.887,2.057-3.023s1.084-2.314,1.494-3.533s0.744-2.426,1.002-3.621
		s0.457-2.285,0.598-3.27s0.24-1.816,0.299-2.496s0.088-1.125,0.088-1.336c0-1.805-0.24-3.592-0.721-5.361s-1.014-3.369-1.6-4.799
		c-0.68-1.664-1.441-3.27-2.285-4.816c1.641-0.07,3.293-0.234,4.957-0.492c1.43-0.234,2.988-0.586,4.676-1.055
		c0.062-0.018,0.122-0.039,0.184-0.057c-0.013,0.299-0.043,0.609-0.043,0.9c0,1.945,0.275,3.803,0.826,5.572
		s1.377,3.328,2.479,4.676s2.479,2.42,4.131,3.217s3.58,1.195,5.783,1.195c1.406,0,2.795-0.158,4.166-0.475s2.695-0.738,3.973-1.266
		s2.496-1.131,3.656-1.811s2.229-1.393,3.252-2.074c1.84-1.226,3.994-3.191,6.565-5.738c2.626-2.602,4.79-5.442,5.417-6
		C344.055,57.023,343.526,55.599,342.22,51.75z M290.409,44.225c0.164-1.512,0.445-3.264,0.844-5.256
		c0.398-1.992,0.984-4.271,1.758-6.838s1.84-5.537,3.199-8.912c0.445-1.148,0.949-2.009,1.512-2.584
		c0.562-0.574,1.383-0.861,2.461-0.861c0.609,0,1.09,0.287,1.441,0.861c0.352,0.575,0.527,1.482,0.527,2.725
		c0,0.891-0.369,2.192-1.107,3.902c-0.738,1.711-1.693,3.686-2.865,5.924c-1.172,2.238-2.484,4.664-3.938,7.277
		s-2.895,5.268-4.324,7.963C290.081,47.137,290.245,45.736,290.409,44.225z M291.833,82.932c-0.082,1.324-0.246,2.543-0.492,3.656
		s-0.609,2.033-1.09,2.76s-1.119,1.09-1.916,1.09c-0.258,0-0.51-0.158-0.756-0.475s-0.469-1.002-0.668-2.057
		s-0.363-2.602-0.492-4.641s-0.193-4.781-0.193-8.227c0-0.492,0.023-1.166,0.07-2.021s0.105-1.781,0.176-2.777
		s0.152-2.01,0.246-3.041s0.193-1.963,0.299-2.795s0.217-1.512,0.334-2.039s0.223-0.791,0.316-0.791
		c0.281,0,0.586,0.316,0.914,0.949s0.65,1.459,0.967,2.479s0.621,2.174,0.914,3.463s0.551,2.584,0.773,3.885
		s0.398,2.549,0.527,3.744s0.193,2.203,0.193,3.023C291.956,80.336,291.915,81.607,291.833,82.932z M313.085,58.727
		c0.047-0.727,0.146-1.477,0.299-2.25s0.375-1.541,0.668-2.303s0.68-1.441,1.16-2.039s1.078-1.084,1.793-1.459
		s1.576-0.562,2.584-0.562c0.562,0,1.037,0.34,1.424,1.02s0.58,1.547,0.58,2.602c0,0.75-0.293,1.523-0.879,2.32
		s-1.307,1.535-2.162,2.215s-1.781,1.236-2.777,1.67s-1.916,0.65-2.76,0.65C313.015,60.074,313.038,59.453,313.085,58.727z"/>
</g>
<g>
	<g>
		<path fill="#FFFFFF" d="M144.924,64.268c-1.242,1.488-2.367,2.725-3.375,3.709s-1.922,1.77-2.742,2.355s-1.582,1.078-2.285,1.477
			c0.609-3.984,1.207-7.711,1.793-11.18c0.234-1.477,0.48-2.959,0.738-4.447s0.51-2.9,0.756-4.236s0.475-2.531,0.686-3.586
			s0.387-1.887,0.527-2.496c0.07-0.281,0.105-0.527,0.105-0.738c0-0.68-0.246-1.178-0.738-1.494s-1.102-0.475-1.828-0.475
			c-0.609,0-1.254,0.105-1.934,0.316s-1.33,0.527-1.951,0.949s-1.172,0.943-1.652,1.564s-0.814,1.33-1.002,2.127l-2.461,10.336
			c-0.094,0.75-0.299,1.688-0.615,2.812s-0.732,2.215-1.248,3.27s-1.125,1.957-1.828,2.707s-1.488,1.125-2.355,1.125
			c-0.539,0-0.984-0.135-1.336-0.404s-0.633-0.621-0.844-1.055s-0.357-0.926-0.439-1.477s-0.123-1.119-0.123-1.705
			c0-1.125,0.094-2.426,0.281-3.902s0.439-2.982,0.756-4.518s0.68-3.035,1.09-4.5s0.826-2.736,1.248-3.814
			c0.141-0.352,0.24-0.68,0.299-0.984s0.088-0.586,0.088-0.844c0-0.867-0.293-1.506-0.879-1.916s-1.289-0.615-2.109-0.615
			c-0.961,0-1.945,0.275-2.953,0.826s-1.781,1.354-2.32,2.408c-0.727,1.477-1.371,2.936-1.934,4.377s-1.031,2.936-1.406,4.482
			s-0.662,3.176-0.861,4.887c-0.164,1.416-0.257,2.951-0.285,4.593c-0.119,0.113-0.225,0.235-0.348,0.347
			c-0.551,0.504-1.102,0.955-1.652,1.354s-1.096,0.721-1.635,0.967s-1.055,0.369-1.547,0.369c-0.656,0-1.084-0.311-1.283-0.932
			s-0.299-1.482-0.299-2.584c0-1.289,0.117-2.654,0.352-4.096s0.492-2.883,0.773-4.324s0.539-2.848,0.773-4.219
			s0.352-2.619,0.352-3.744c0-0.727-0.064-1.301-0.193-1.723s-0.311-0.75-0.545-0.984s-0.504-0.387-0.809-0.457
			s-0.633-0.105-0.984-0.105c-0.258,0-0.521,0.006-0.791,0.018s-0.533,0.018-0.791,0.018c-0.305,0-0.604-0.018-0.896-0.053
			s-0.58-0.111-0.861-0.229s-0.516-0.305-0.703-0.562s-0.381-0.521-0.58-0.791s-0.451-0.51-0.756-0.721s-0.727-0.316-1.266-0.316
			c-1.617,0-3.205,0.346-4.764,1.037c-1.559,0.691-3.041,1.623-4.447,2.795S86.184,47.809,85,49.379s-2.209,3.24-3.076,5.01
			s-1.547,3.58-2.039,5.432c-0.275,1.04-0.467,2.064-0.588,3.074c-0.045,0.021-0.087,0.053-0.133,0.072
			c-0.715,0.316-1.412,0.475-2.092,0.475s-1.318-0.094-1.916-0.281s-1.113-0.492-1.547-0.914s-0.779-0.955-1.037-1.6
			s-0.387-1.424-0.387-2.338c0-0.375,0.146-1.254,0.439-2.637s0.656-3.082,1.09-5.098s0.902-4.277,1.406-6.785
			s0.973-5.085,1.406-7.734c0.434-2.648,0.797-5.291,1.09-7.928s0.439-5.092,0.439-7.365c0-0.82-0.094-1.494-0.281-2.021
			s-0.457-0.949-0.809-1.266s-0.768-0.539-1.248-0.668c-0.48-0.128-1.014-0.193-1.6-0.193c-0.75,0-1.482,0.065-2.197,0.193
			c-0.715,0.129-1.354,0.393-1.916,0.791c-0.562,0.399-1.025,0.961-1.389,1.688c-0.363,0.727-0.58,1.688-0.65,2.883
			c-0.07,1.148-0.193,2.737-0.369,4.764c-0.176,2.027-0.416,4.312-0.721,6.855c-0.305,2.543-0.686,5.244-1.143,8.104
			s-0.996,5.695-1.617,8.508s-1.336,5.508-2.145,8.086s-1.723,4.846-2.742,6.803s-2.145,3.521-3.375,4.693s-2.596,1.758-4.096,1.758
			c-0.867,0-1.594-0.316-2.18-0.949s-1.061-1.547-1.424-2.742s-0.621-2.643-0.773-4.342s-0.229-3.604-0.229-5.713
			c0-2.062,0.094-4.324,0.281-6.785s0.428-4.951,0.721-7.471c0.293-2.519,0.609-4.975,0.949-7.365s0.656-4.529,0.949-6.416
			c0.293-1.886,0.533-3.433,0.721-4.641c0.188-1.207,0.281-1.893,0.281-2.057c0-0.492-0.07-0.937-0.211-1.336
			c-0.141-0.398-0.381-0.738-0.721-1.02s-0.797-0.504-1.371-0.668c-0.574-0.164-1.307-0.246-2.197-0.246
			c-0.938,0-1.764,0.105-2.479,0.316s-1.342,0.575-1.881,1.09c-0.539,0.516-1.002,1.208-1.389,2.074
			c-0.387,0.867-0.721,1.946-1.002,3.234c-1.523,7.993-3.27,15.129-5.238,21.41c-0.562,1.781-1.16,3.545-1.793,5.291
			s-1.307,3.41-2.021,4.992s-1.459,3.053-2.232,4.412s-1.582,2.531-2.426,3.516s-1.717,1.758-2.619,2.32s-1.834,0.844-2.795,0.844
			s-1.793-0.305-2.496-0.914s-1.289-1.447-1.758-2.514s-0.814-2.32-1.037-3.762s-0.334-2.994-0.334-4.658
			c0-2.039,0.193-4.248,0.58-6.627s0.873-4.799,1.459-7.26s1.219-4.887,1.898-7.277s1.312-4.605,1.898-6.645
			s1.072-3.837,1.459-5.396c0.387-1.559,0.58-2.736,0.58-3.533c0-0.703-0.076-1.26-0.229-1.67c-0.152-0.41-0.375-0.726-0.668-0.949
			c-0.293-0.223-0.65-0.369-1.072-0.439s-0.891-0.105-1.406-0.105c-0.633,0-1.26,0.035-1.881,0.105s-1.236,0.287-1.846,0.65
			c-0.609,0.364-1.207,0.926-1.793,1.688c-0.586,0.762-1.172,1.823-1.758,3.182c-0.984,2.438-1.863,4.945-2.637,7.523
			c-0.773,2.579-1.424,5.18-1.951,7.805c-0.527,2.625-0.932,5.244-1.213,7.857s-0.422,5.162-0.422,7.646
			c0,4.055,0.322,7.6,0.967,10.635s1.5,5.561,2.566,7.576s2.303,3.533,3.709,4.553s2.883,1.529,4.43,1.529
			c2.695,0,5.15-0.463,7.365-1.389s4.184-2.479,5.906-4.658s3.223-5.068,4.5-8.666s2.338-8.068,3.182-13.412
			c-0.07,0.773-0.164,1.652-0.281,2.637s-0.176,2.039-0.176,3.164c0,3.07,0.223,5.965,0.668,8.684s1.154,5.086,2.127,7.102
			s2.238,3.609,3.797,4.781s3.451,1.758,5.678,1.758c1.758,0,3.463-0.334,5.115-1.002s3.234-1.617,4.746-2.848
			s2.941-2.719,4.289-4.465s2.607-3.709,3.779-5.889c0.141,1.125,0.387,2.098,0.738,2.918s0.791,1.488,1.318,2.004
			s1.131,0.896,1.811,1.143s1.406,0.369,2.18,0.369c1.617,0,3.346-0.574,5.186-1.723c0.025-0.016,0.05-0.035,0.074-0.051
			c0.053,0.151,0.096,0.309,0.154,0.455c0.492,1.23,1.148,2.273,1.969,3.129s1.764,1.512,2.83,1.969s2.162,0.686,3.287,0.686
			c1.055,0,2.109-0.176,3.164-0.527s2.068-0.803,3.041-1.354s1.869-1.166,2.689-1.846s1.512-1.348,2.074-2.004
			c0.75,1.898,1.641,3.346,2.672,4.342s2.32,1.494,3.867,1.494c1.289,0,2.578-0.316,3.867-0.949s2.496-1.406,3.621-2.32
			c0.228-0.185,0.43-0.379,0.647-0.567c0.267,0.384,0.55,0.749,0.864,1.077c0.82,0.855,1.764,1.512,2.83,1.969
			s2.162,0.686,3.287,0.686c1.289,0,2.619-0.346,3.99-1.037s2.689-1.6,3.955-2.725l-0.949,3.27c-1.688,1.383-3.357,2.836-5.01,4.359
			s-3.234,3.07-4.746,4.641s-2.912,3.146-4.201,4.729s-2.402,3.105-3.34,4.57c-0.937,1.465-1.675,2.859-2.215,4.184
			c-0.539,1.324-0.809,2.514-0.809,3.568c0,1.523,0.259,2.742,0.773,3.656c0.516,0.914,1.166,1.617,1.951,2.109
			s1.641,0.82,2.566,0.984s1.787,0.246,2.584,0.246c2.016,0,3.855-0.346,5.52-1.037s3.17-1.658,4.518-2.9s2.555-2.73,3.621-4.465
			s2.016-3.639,2.848-5.713s1.553-4.301,2.162-6.68s1.137-4.822,1.582-7.33c2.297-1.406,4.441-2.859,6.434-4.359
			c0.844-0.633,1.705-1.307,2.584-2.021s1.723-1.453,2.531-2.215s1.547-1.523,2.215-2.285s1.213-1.506,1.635-2.232l-1.688-7.805
			C147.561,60.922,146.166,62.779,144.924,64.268z M96.936,58.449c-0.094,0.75-0.299,1.688-0.615,2.812s-0.732,2.215-1.248,3.27
			s-1.125,1.957-1.828,2.707s-1.488,1.125-2.355,1.125c-0.539,0-0.984-0.135-1.336-0.404s-0.633-0.621-0.844-1.055
			s-0.357-0.926-0.439-1.477s-0.123-1.119-0.123-1.705c0-1.031,0.135-2.133,0.404-3.305s0.65-2.338,1.143-3.498
			s1.078-2.268,1.758-3.322s1.424-1.992,2.232-2.812s1.67-1.471,2.584-1.951s1.852-0.721,2.812-0.721L96.936,58.449z
			 M125.623,87.312c-0.328,1.195-0.727,2.42-1.195,3.674s-1.008,2.479-1.617,3.674s-1.283,2.262-2.021,3.199
			s-1.547,1.693-2.426,2.268s-1.811,0.861-2.795,0.861c-0.938,0-1.406-0.434-1.406-1.301c0-0.539,0.176-1.219,0.527-2.039
			s0.832-1.705,1.441-2.654s1.318-1.939,2.127-2.971s1.664-2.033,2.566-3.006s1.828-1.881,2.777-2.725s1.881-1.57,2.795-2.18
			C126.209,85.051,125.951,86.117,125.623,87.312z"/>
		<path fill="#FFFFFF" d="M214.838,53.65c-1.781,0.551-3.832,0.826-6.152,0.826c-0.234,0-0.434-0.029-0.598-0.088
			s-0.322-0.123-0.475-0.193s-0.322-0.135-0.51-0.193s-0.434-0.088-0.738-0.088c-0.258,0-0.504,0.035-0.738,0.105
			s-0.586,0.223-1.055,0.457l0.07-0.562c1.453-1.852,2.877-3.838,4.271-5.959s2.725-4.277,3.99-6.469s2.432-4.389,3.498-6.592
			c1.066-2.203,1.992-4.324,2.777-6.363s1.395-3.955,1.828-5.748s0.65-3.38,0.65-4.764c0-1.523-0.24-2.807-0.721-3.85
			c-0.48-1.042-1.084-1.881-1.811-2.514s-1.529-1.09-2.408-1.371s-1.717-0.422-2.514-0.422c-2.016,0-3.867,0.61-5.555,1.828
			c-1.688,1.219-3.217,2.877-4.588,4.975c-1.371,2.098-2.607,4.547-3.709,7.348c-1.102,2.801-2.08,5.783-2.936,8.947
			s-1.594,6.416-2.215,9.756c-0.423,2.275-0.794,4.499-1.141,6.699c-0.079-0.082-0.151-0.167-0.23-0.248
			c-1.465-1.5-3.047-2.83-4.746-3.99s-3.521-2.086-5.467-2.777c-1.945-0.691-4.031-1.037-6.258-1.037
			c-2.602,0-4.945,0.475-7.031,1.424s-3.85,2.25-5.291,3.902s-2.549,3.598-3.322,5.836s-1.16,4.646-1.16,7.225
			c0,1.875,0.217,3.727,0.65,5.555s1.119,3.469,2.057,4.922s2.139,2.631,3.604,3.533s3.229,1.354,5.291,1.354
			c1.43,0,2.777-0.246,4.043-0.738s2.432-1.16,3.498-2.004s2.016-1.84,2.848-2.988s1.535-2.379,2.109-3.691s1.014-2.672,1.318-4.078
			s0.457-2.801,0.457-4.184s-0.17-2.83-0.51-4.342s-0.85-2.947-1.529-4.307l0.281-0.387c0.844,0.562,1.852,1.26,3.023,2.092
			s2.361,1.717,3.568,2.654c0.69,0.537,1.354,1.083,2.003,1.635c-0.313,2.344-0.577,4.594-0.79,6.75
			c-0.281,2.848-0.504,5.361-0.668,7.541s-0.275,3.926-0.334,5.238s-0.088,2.027-0.088,2.145c0,1.43,0.053,2.912,0.158,4.447
			s0.287,3.041,0.545,4.518s0.615,2.877,1.072,4.201s1.025,2.484,1.705,3.48s1.5,1.787,2.461,2.373s2.086,0.879,3.375,0.879
			s2.443-0.27,3.463-0.809s1.922-1.248,2.707-2.127s1.471-1.887,2.057-3.023s1.084-2.314,1.494-3.533s0.744-2.426,1.002-3.621
			s0.457-2.285,0.598-3.27s0.24-1.816,0.299-2.496s0.088-1.125,0.088-1.336c0-1.805-0.24-3.592-0.721-5.361s-1.014-3.369-1.6-4.799
			c-0.68-1.664-1.441-3.27-2.285-4.816c1.641-0.07,3.293-0.234,4.957-0.492c1.43-0.234,2.988-0.586,4.676-1.055
			s3.305-1.125,4.852-1.969l0.773-8.543c-1.055,1.031-2.297,1.934-3.727,2.707C218.119,52.484,216.619,53.1,214.838,53.65z
			 M179.172,60.014c-0.34,1.488-0.791,2.848-1.354,4.078s-1.219,2.25-1.969,3.059s-1.523,1.213-2.32,1.213
			c-0.914,0-1.699-0.193-2.355-0.58s-1.184-0.902-1.582-1.547s-0.691-1.4-0.879-2.268s-0.281-1.793-0.281-2.777
			c0-1.43,0.188-2.918,0.562-4.465s0.891-2.959,1.547-4.236s1.418-2.326,2.285-3.146s1.781-1.23,2.742-1.23
			c0.727,0,1.348,0.199,1.863,0.598s0.938,0.938,1.266,1.617s0.574,1.482,0.738,2.408s0.246,1.928,0.246,3.006
			C179.682,57.102,179.512,58.525,179.172,60.014z M203.518,42.225c0.164-1.512,0.445-3.264,0.844-5.256
			c0.398-1.992,0.984-4.271,1.758-6.838s1.84-5.537,3.199-8.912c0.445-1.148,0.949-2.009,1.512-2.584
			c0.562-0.574,1.383-0.861,2.461-0.861c0.609,0,1.09,0.287,1.441,0.861c0.352,0.575,0.527,1.482,0.527,2.725
			c0,0.891-0.369,2.192-1.107,3.902c-0.738,1.711-1.693,3.686-2.865,5.924c-1.172,2.238-2.484,4.664-3.938,7.277
			c-1.453,2.614-2.895,5.268-4.324,7.963C203.189,45.137,203.354,43.736,203.518,42.225z M204.941,80.932
			c-0.082,1.324-0.246,2.543-0.492,3.656s-0.609,2.033-1.09,2.76s-1.119,1.09-1.916,1.09c-0.258,0-0.51-0.158-0.756-0.475
			s-0.469-1.002-0.668-2.057s-0.363-2.602-0.492-4.641s-0.193-4.781-0.193-8.227c0-0.492,0.023-1.166,0.07-2.021
			s0.105-1.781,0.176-2.777s0.152-2.01,0.246-3.041s0.193-1.963,0.299-2.795s0.217-1.512,0.334-2.039s0.223-0.791,0.316-0.791
			c0.281,0,0.586,0.316,0.914,0.949s0.65,1.459,0.967,2.479s0.621,2.174,0.914,3.463s0.551,2.584,0.773,3.885
			s0.398,2.549,0.527,3.744s0.193,2.203,0.193,3.023C205.064,78.336,205.023,79.607,204.941,80.932z"/>
	</g>
	<path fill="#FFFFFF" d="M269.998,36.828c1.195,0,2.221-0.181,3.076-0.545c0.855-0.363,1.564-0.838,2.127-1.424
		c0.562-0.585,0.973-1.253,1.23-2.004c0.258-0.75,0.387-1.523,0.387-2.32c0-0.867-0.158-1.617-0.475-2.25s-0.744-1.143-1.283-1.529
		s-1.172-0.673-1.898-0.861c-0.727-0.188-1.5-0.281-2.32-0.281c-1.312,0-2.408,0.206-3.287,0.615
		c-0.879,0.41-1.582,0.914-2.109,1.512s-0.908,1.236-1.143,1.916c-0.234,0.68-0.352,1.289-0.352,1.828
		c0,1.617,0.492,2.913,1.477,3.885C266.412,36.342,267.936,36.828,269.998,36.828z"/>
	<path fill="#FFFFFF" d="M339,49.75c-0.75,1.666-7.417,9.333-10.783,12.197c-1.255,1.068-2.707,1.916-4.184,2.76
		s-2.994,1.547-4.553,2.109s-3.041,0.844-4.447,0.844c-0.445,0-0.861-0.047-1.248-0.141s-0.756-0.258-1.107-0.492
		s-0.697-0.562-1.037-0.984s-0.686-0.949-1.037-1.582c2.039-0.562,3.932-1.348,5.678-2.355s3.252-2.156,4.518-3.445
		s2.256-2.66,2.971-4.113s1.072-2.906,1.072-4.359c0-1.336-0.234-2.543-0.703-3.621s-1.119-1.998-1.951-2.76
		s-1.811-1.354-2.936-1.775s-2.344-0.633-3.656-0.633c-1.617,0-3.088,0.287-4.412,0.861s-2.52,1.348-3.586,2.32
		s-1.998,2.098-2.795,3.375c-0.778,1.248-1.423,2.558-1.944,3.928c-1.192,0.648-2.637,1.238-4.349,1.768
		c-1.781,0.551-3.832,0.826-6.152,0.826c-0.234,0-0.434-0.029-0.598-0.088s-0.322-0.123-0.475-0.193s-0.322-0.135-0.51-0.193
		s-0.434-0.088-0.738-0.088c-0.258,0-0.504,0.035-0.738,0.105s-0.586,0.223-1.055,0.457l0.07-0.562
		c1.453-1.852,2.877-3.838,4.271-5.959s2.725-4.277,3.99-6.469s2.432-4.389,3.498-6.592c1.066-2.203,1.992-4.324,2.777-6.363
		s1.395-3.955,1.828-5.748s0.65-3.38,0.65-4.764c0-1.523-0.24-2.807-0.721-3.85c-0.48-1.042-1.084-1.881-1.811-2.514
		s-1.529-1.09-2.408-1.371s-1.717-0.422-2.514-0.422c-2.016,0-3.867,0.61-5.555,1.828c-1.688,1.219-3.217,2.877-4.588,4.975
		c-1.371,2.098-2.607,4.547-3.709,7.348c-1.102,2.801-2.08,5.783-2.936,8.947s-1.594,6.416-2.215,9.756s-1.16,6.598-1.617,9.773
		s-0.826,6.188-1.107,9.035c-0.072,0.73-0.141,1.438-0.205,2.123c-0.677,0.576-1.348,1.159-2.045,1.709
		c-1.055,0.832-2.098,1.541-3.129,2.127s-1.969,0.879-2.812,0.879c-0.727,0-1.207-0.311-1.441-0.932s-0.352-1.459-0.352-2.514
		c0-1.078,0.117-2.291,0.352-3.639s0.527-2.73,0.879-4.148s0.727-2.836,1.125-4.254s0.773-2.742,1.125-3.973
		s0.645-2.332,0.879-3.305s0.352-1.717,0.352-2.232c0-0.609-0.176-1.096-0.527-1.459s-1.02-0.545-2.004-0.545
		c-0.539,0-1.143,0.065-1.811,0.193c-0.668,0.129-1.312,0.329-1.934,0.598c-0.621,0.27-1.178,0.621-1.67,1.055
		s-0.82,0.955-0.984,1.564c-0.422,1.758-0.908,3.68-1.459,5.766c-0.263,0.994-0.225,1.129-0.474,2.125
		c-0.704,1.343-1.671,3.524-1.848,3.857c-0.131,0.245-0.649,1.153-1.177,2.071c-0.634,1.103-1.282,2.22-1.282,2.22
		c0.102-0.157,0.067-0.082-1.192,1.817c-0.385,0.579-0.701,1.109-1.16,1.708c-0.855,1.115-1.625,1.826-2.585,2.29
		c-1.109,0.536-1.4,0.603-2.759,0.833c-0.935,0.16-1.941-0.045-2.637-0.648c-0.622-0.54-1.274-1.27-2-2.5
		c-0.584-0.99-1.062-2.531-1.281-4.094c-0.199-1.426-0.413-2.827-0.344-4.469c0.089-2.097,0.282-4.172,0.625-6.562
		c0.338-2.355,0.721-4.76,1.25-7.438c0.484-2.45,1.204-4.64,1.875-7c0.672-2.36,1.422-4.862,2-6.875
		c0.577-2.012,5.072-12.838,5.088-14.422c0.004-0.364,0.081-0.76-0.468-1.108c-0.028-0.018-0.823-0.47-2.015-0.581
		c-0.654-0.061-0.761-0.087-1.543-0.124c-0.835-0.039-1.465,0.047-2.469,0.073c-0.339,0.009-1.317,0.57-1.763,1.446
		c-1.389,2.732-3.704,8.35-4.144,9.372c-0.967,2.393-1.762,4.182-2.9,7.673c-0.889,2.724-1.338,4.358-1.967,7.199
		c-0.57,2.581-1.05,4.835-1.328,7.415c-0.277,2.579-0.416,5.096-0.416,7.547c0,4.003,0.318,7.503,0.953,10.498
		c0.637,2.996,1.48,5.488,2.534,7.478c1.053,1.99,2.273,3.487,3.661,4.495c1.388,1.006,2.845,1.509,4.372,1.509
		c2.66,0,5.085-0.457,7.27-1.37c1.922-0.804,3.655-2.085,5.201-3.844c0.226,0.794,0.563,1.485,1.04,2.049
		c0.516,0.609,1.189,1.084,2.021,1.424s1.857,0.51,3.076,0.51c1.359,0,2.795-0.246,4.307-0.738s2.994-1.107,4.447-1.846
		c1.02-0.518,1.973-1.084,2.895-1.671c-0.095,1.362-0.164,2.519-0.205,3.446c-0.059,1.312-0.088,2.027-0.088,2.145
		c0,1.43,0.053,2.912,0.158,4.447s0.287,3.041,0.545,4.518s0.615,2.877,1.072,4.201s1.025,2.484,1.705,3.48s1.5,1.787,2.461,2.373
		s2.086,0.879,3.375,0.879s2.443-0.27,3.463-0.809s1.922-1.248,2.707-2.127s1.471-1.887,2.057-3.023s1.084-2.314,1.494-3.533
		s0.744-2.426,1.002-3.621s0.457-2.285,0.598-3.27s0.24-1.816,0.299-2.496s0.088-1.125,0.088-1.336c0-1.805-0.24-3.592-0.721-5.361
		s-1.014-3.369-1.6-4.799c-0.68-1.664-1.441-3.27-2.285-4.816c1.641-0.07,3.293-0.234,4.957-0.492
		c1.43-0.234,2.988-0.586,4.676-1.055c0.062-0.018,0.122-0.039,0.184-0.057c-0.013,0.299-0.043,0.609-0.043,0.9
		c0,1.945,0.275,3.803,0.826,5.572s1.377,3.328,2.479,4.676s2.479,2.42,4.131,3.217s3.58,1.195,5.783,1.195
		c1.406,0,2.795-0.158,4.166-0.475s2.695-0.738,3.973-1.266s2.496-1.131,3.656-1.811s2.229-1.393,3.252-2.074
		c1.84-1.226,3.994-3.191,6.565-5.738c2.626-2.602,4.79-5.442,5.417-6C340.835,55.023,340.307,53.599,339,49.75z M287.189,42.225
		c0.164-1.512,0.445-3.264,0.844-5.256c0.398-1.992,0.984-4.271,1.758-6.838s1.84-5.537,3.199-8.912
		c0.445-1.148,0.949-2.009,1.512-2.584c0.562-0.574,1.383-0.861,2.461-0.861c0.609,0,1.09,0.287,1.441,0.861
		c0.352,0.575,0.527,1.482,0.527,2.725c0,0.891-0.369,2.192-1.107,3.902c-0.738,1.711-1.693,3.686-2.865,5.924
		c-1.172,2.238-2.484,4.664-3.938,7.277c-1.453,2.614-2.895,5.268-4.324,7.963C286.861,45.137,287.025,43.736,287.189,42.225z
		 M288.613,80.932c-0.082,1.324-0.246,2.543-0.492,3.656s-0.609,2.033-1.09,2.76s-1.119,1.09-1.916,1.09
		c-0.258,0-0.51-0.158-0.756-0.475s-0.469-1.002-0.668-2.057s-0.363-2.602-0.492-4.641s-0.193-4.781-0.193-8.227
		c0-0.492,0.023-1.166,0.07-2.021s0.105-1.781,0.176-2.777s0.152-2.01,0.246-3.041s0.193-1.963,0.299-2.795s0.217-1.512,0.334-2.039
		s0.223-0.791,0.316-0.791c0.281,0,0.586,0.316,0.914,0.949s0.65,1.459,0.967,2.479s0.621,2.174,0.914,3.463
		s0.551,2.584,0.773,3.885s0.398,2.549,0.527,3.744s0.193,2.203,0.193,3.023C288.736,78.336,288.695,79.607,288.613,80.932z
		 M309.865,56.727c0.047-0.727,0.146-1.477,0.299-2.25s0.375-1.541,0.668-2.303s0.68-1.441,1.16-2.039s1.078-1.084,1.793-1.459
		s1.576-0.562,2.584-0.562c0.562,0,1.037,0.34,1.424,1.02s0.58,1.547,0.58,2.602c0,0.75-0.293,1.523-0.879,2.32
		s-1.307,1.535-2.162,2.215s-1.781,1.236-2.777,1.67s-1.916,0.65-2.76,0.65C309.795,58.074,309.818,57.453,309.865,56.727z"/>
</g>
</svg>
